<?xml version="1.0" encoding="utf-8"?>
<!-- Generator: Adobe Illustrator 25.0.0, SVG Export Plug-In . SVG Version: 6.00 Build 0)  -->
<svg version="1.1" id="圖層_1" xmlns="http://www.w3.org/2000/svg" xmlns:xlink="http://www.w3.org/1999/xlink" x="0px" y="0px"
	 viewBox="0 0 30 31" style="enable-background:new 0 0 30 31;" xml:space="preserve">
<style type="text/css">
	.st0{fill:#0A8EAB;}
</style>
<path class="st0" d="M10.2,11.5c1.9-3.3,6.7-3.3,8.7,0l3,5.2c1.9,3.3-0.5,7.5-4.3,7.5h-6.1c-3.8,0-6.3-4.2-4.3-7.5L10.2,11.5z"/>
<ellipse transform="matrix(0.866 -0.5 0.5 0.866 -5.3661 3.9019)" class="st0" cx="4.6" cy="12" rx="3" ry="4"/>
<ellipse transform="matrix(0.5 -0.866 0.866 0.5 1.9377 27.2847)" class="st0" cx="24.6" cy="12" rx="4" ry="3"/>
<ellipse transform="matrix(0.2588 -0.9659 0.9659 0.2588 9.5507 21.7272)" class="st0" cx="18.9" cy="4.6" rx="4" ry="3"/>
<ellipse transform="matrix(0.9659 -0.2588 0.2588 0.9659 -0.8625 2.729)" class="st0" cx="9.9" cy="4.6" rx="3" ry="4"/>
</svg>
